<mxfile host="app.diagrams.net" agent="Mozilla/5.0 (Windows NT 10.0; Win64; x64) AppleWebKit/537.36 (KHTML, like Gecko) Chrome/134.0.0.0 Safari/537.36 Edg/134.0.0.0" version="26.1.0">
  <diagram name="Página-1" id="QUByvhJLqShQEcAQ7hVG">
    <mxGraphModel dx="777" dy="776" grid="1" gridSize="10" guides="1" tooltips="1" connect="1" arrows="1" fold="1" page="1" pageScale="1" pageWidth="827" pageHeight="1169" math="0" shadow="0">
      <root>
        <mxCell id="0" />
        <mxCell id="1" parent="0" />
        <mxCell id="nzQGI6zBzVJNUCXNgy-H-1" value="&lt;font style=&quot;font-size: 14px;&quot;&gt;&lt;b&gt;Artigo&lt;/b&gt;&lt;/font&gt;" style="rounded=1;whiteSpace=wrap;html=1;" parent="1" vertex="1">
          <mxGeometry x="190" y="370" width="120" height="60" as="geometry" />
        </mxCell>
        <mxCell id="nzQGI6zBzVJNUCXNgy-H-3" value="&lt;font style=&quot;font-size: 14px;&quot;&gt;&lt;b&gt;Participante&lt;/b&gt;&lt;/font&gt;" style="rounded=1;whiteSpace=wrap;html=1;" parent="1" vertex="1">
          <mxGeometry x="420" y="830" width="120" height="60" as="geometry" />
        </mxCell>
        <mxCell id="nzQGI6zBzVJNUCXNgy-H-4" value="&lt;font style=&quot;font-size: 14px;&quot;&gt;&lt;b&gt;Instituição&lt;/b&gt;&lt;/font&gt;" style="rounded=1;whiteSpace=wrap;html=1;" parent="1" vertex="1">
          <mxGeometry x="420" y="600" width="120" height="60" as="geometry" />
        </mxCell>
        <mxCell id="nzQGI6zBzVJNUCXNgy-H-5" value="&lt;font style=&quot;font-size: 14px;&quot;&gt;&lt;b&gt;Autor&lt;/b&gt;&lt;/font&gt;" style="rounded=1;whiteSpace=wrap;html=1;" parent="1" vertex="1">
          <mxGeometry x="530" y="370" width="120" height="60" as="geometry" />
        </mxCell>
        <mxCell id="nzQGI6zBzVJNUCXNgy-H-6" value="tem" style="rhombus;whiteSpace=wrap;html=1;" parent="1" vertex="1">
          <mxGeometry x="400" y="375" width="50" height="50" as="geometry" />
        </mxCell>
        <mxCell id="nzQGI6zBzVJNUCXNgy-H-7" value="afiliado a" style="rhombus;whiteSpace=wrap;html=1;" parent="1" vertex="1">
          <mxGeometry x="447.5" y="480" width="65" height="50" as="geometry" />
        </mxCell>
        <mxCell id="nzQGI6zBzVJNUCXNgy-H-8" value="pertence a" style="rhombus;whiteSpace=wrap;html=1;" parent="1" vertex="1">
          <mxGeometry x="440" y="730" width="80" height="60" as="geometry" />
        </mxCell>
        <mxCell id="nzQGI6zBzVJNUCXNgy-H-11" value="" style="triangle;whiteSpace=wrap;html=1;rotation=-90;" parent="1" vertex="1">
          <mxGeometry x="450" y="920" width="60" height="80" as="geometry" />
        </mxCell>
        <mxCell id="nzQGI6zBzVJNUCXNgy-H-12" value="IS-A" style="text;html=1;align=center;verticalAlign=middle;resizable=0;points=[];autosize=1;strokeColor=none;fillColor=none;" parent="1" vertex="1">
          <mxGeometry x="455" y="950" width="50" height="30" as="geometry" />
        </mxCell>
        <mxCell id="nzQGI6zBzVJNUCXNgy-H-14" value="&lt;font style=&quot;font-size: 14px;&quot;&gt;&lt;b&gt;Não Estudante&lt;/b&gt;&lt;/font&gt;" style="rounded=1;whiteSpace=wrap;html=1;" parent="1" vertex="1">
          <mxGeometry x="500" y="1040" width="120" height="60" as="geometry" />
        </mxCell>
        <mxCell id="nzQGI6zBzVJNUCXNgy-H-15" value="&lt;font style=&quot;font-size: 14px;&quot;&gt;&lt;b&gt;Estudante&lt;/b&gt;&lt;/font&gt;" style="rounded=1;whiteSpace=wrap;html=1;" parent="1" vertex="1">
          <mxGeometry x="340" y="1040" width="120" height="60" as="geometry" />
        </mxCell>
        <mxCell id="nzQGI6zBzVJNUCXNgy-H-18" value="1" style="endArrow=none;html=1;rounded=0;" parent="1" source="nzQGI6zBzVJNUCXNgy-H-8" target="nzQGI6zBzVJNUCXNgy-H-4" edge="1">
          <mxGeometry x="0.7143" y="-10" width="50" height="50" relative="1" as="geometry">
            <mxPoint x="125" y="644" as="sourcePoint" />
            <mxPoint x="175" y="594" as="targetPoint" />
            <mxPoint as="offset" />
          </mxGeometry>
        </mxCell>
        <mxCell id="nzQGI6zBzVJNUCXNgy-H-19" value="1" style="endArrow=none;html=1;rounded=0;" parent="1" source="nzQGI6zBzVJNUCXNgy-H-4" target="nzQGI6zBzVJNUCXNgy-H-7" edge="1">
          <mxGeometry x="-0.7143" y="-10" width="50" height="50" relative="1" as="geometry">
            <mxPoint x="135" y="654" as="sourcePoint" />
            <mxPoint x="185" y="604" as="targetPoint" />
            <mxPoint as="offset" />
          </mxGeometry>
        </mxCell>
        <mxCell id="nzQGI6zBzVJNUCXNgy-H-20" value="N" style="endArrow=none;html=1;rounded=0;shape=link;" parent="1" source="nzQGI6zBzVJNUCXNgy-H-7" target="nzQGI6zBzVJNUCXNgy-H-5" edge="1">
          <mxGeometry x="0.6" y="-10" width="50" height="50" relative="1" as="geometry">
            <mxPoint x="255" y="664" as="sourcePoint" />
            <mxPoint x="305" y="614" as="targetPoint" />
            <mxPoint as="offset" />
          </mxGeometry>
        </mxCell>
        <mxCell id="nzQGI6zBzVJNUCXNgy-H-21" value="M" style="endArrow=none;html=1;rounded=0;" parent="1" source="nzQGI6zBzVJNUCXNgy-H-5" target="nzQGI6zBzVJNUCXNgy-H-6" edge="1">
          <mxGeometry x="-0.75" y="-10" width="50" height="50" relative="1" as="geometry">
            <mxPoint x="265" y="674" as="sourcePoint" />
            <mxPoint x="315" y="624" as="targetPoint" />
            <mxPoint as="offset" />
          </mxGeometry>
        </mxCell>
        <mxCell id="nzQGI6zBzVJNUCXNgy-H-22" value="" style="endArrow=none;html=1;rounded=0;shape=link;" parent="1" source="nzQGI6zBzVJNUCXNgy-H-6" target="nzQGI6zBzVJNUCXNgy-H-1" edge="1">
          <mxGeometry width="50" height="50" relative="1" as="geometry">
            <mxPoint x="275" y="684" as="sourcePoint" />
            <mxPoint x="325" y="634" as="targetPoint" />
          </mxGeometry>
        </mxCell>
        <mxCell id="nzQGI6zBzVJNUCXNgy-H-61" value="N" style="edgeLabel;html=1;align=center;verticalAlign=middle;resizable=0;points=[];" parent="nzQGI6zBzVJNUCXNgy-H-22" vertex="1" connectable="0">
          <mxGeometry x="0.0967" y="2" relative="1" as="geometry">
            <mxPoint x="-30" y="-12" as="offset" />
          </mxGeometry>
        </mxCell>
        <mxCell id="nzQGI6zBzVJNUCXNgy-H-24" value="" style="endArrow=none;html=1;rounded=0;" parent="1" source="nzQGI6zBzVJNUCXNgy-H-14" target="nzQGI6zBzVJNUCXNgy-H-11" edge="1">
          <mxGeometry width="50" height="50" relative="1" as="geometry">
            <mxPoint x="135" y="654" as="sourcePoint" />
            <mxPoint x="185" y="604" as="targetPoint" />
          </mxGeometry>
        </mxCell>
        <mxCell id="nzQGI6zBzVJNUCXNgy-H-25" value="" style="endArrow=none;html=1;rounded=0;entryX=-0.016;entryY=0.155;entryDx=0;entryDy=0;entryPerimeter=0;" parent="1" source="nzQGI6zBzVJNUCXNgy-H-15" target="nzQGI6zBzVJNUCXNgy-H-11" edge="1">
          <mxGeometry width="50" height="50" relative="1" as="geometry">
            <mxPoint x="145" y="664" as="sourcePoint" />
            <mxPoint x="195" y="614" as="targetPoint" />
          </mxGeometry>
        </mxCell>
        <mxCell id="nzQGI6zBzVJNUCXNgy-H-26" value="" style="endArrow=none;html=1;rounded=0;shape=link;" parent="1" source="nzQGI6zBzVJNUCXNgy-H-11" target="nzQGI6zBzVJNUCXNgy-H-3" edge="1">
          <mxGeometry width="50" height="50" relative="1" as="geometry">
            <mxPoint x="155" y="674" as="sourcePoint" />
            <mxPoint x="205" y="624" as="targetPoint" />
          </mxGeometry>
        </mxCell>
        <mxCell id="nzQGI6zBzVJNUCXNgy-H-27" value="N" style="endArrow=none;html=1;rounded=0;shape=link;" parent="1" source="nzQGI6zBzVJNUCXNgy-H-3" target="nzQGI6zBzVJNUCXNgy-H-8" edge="1">
          <mxGeometry x="-0.5" y="-10" width="50" height="50" relative="1" as="geometry">
            <mxPoint x="165" y="684" as="sourcePoint" />
            <mxPoint x="215" y="634" as="targetPoint" />
            <mxPoint as="offset" />
          </mxGeometry>
        </mxCell>
        <mxCell id="nzQGI6zBzVJNUCXNgy-H-28" value="título" style="ellipse;whiteSpace=wrap;html=1;" parent="1" vertex="1">
          <mxGeometry x="120" y="330" width="60" height="40" as="geometry" />
        </mxCell>
        <mxCell id="nzQGI6zBzVJNUCXNgy-H-29" value="&lt;u&gt;&lt;b&gt;nº registo&lt;/b&gt;&lt;/u&gt;" style="ellipse;whiteSpace=wrap;html=1;" parent="1" vertex="1">
          <mxGeometry x="110" y="430" width="70" height="40" as="geometry" />
        </mxCell>
        <mxCell id="nzQGI6zBzVJNUCXNgy-H-31" value="" style="endArrow=none;html=1;rounded=0;" parent="1" source="nzQGI6zBzVJNUCXNgy-H-1" target="nzQGI6zBzVJNUCXNgy-H-29" edge="1">
          <mxGeometry width="50" height="50" relative="1" as="geometry">
            <mxPoint x="60" y="580" as="sourcePoint" />
            <mxPoint x="110" y="530" as="targetPoint" />
          </mxGeometry>
        </mxCell>
        <mxCell id="nzQGI6zBzVJNUCXNgy-H-32" value="" style="endArrow=none;html=1;rounded=0;" parent="1" source="nzQGI6zBzVJNUCXNgy-H-1" target="nzQGI6zBzVJNUCXNgy-H-28" edge="1">
          <mxGeometry width="50" height="50" relative="1" as="geometry">
            <mxPoint x="70" y="590" as="sourcePoint" />
            <mxPoint x="120" y="540" as="targetPoint" />
          </mxGeometry>
        </mxCell>
        <mxCell id="nzQGI6zBzVJNUCXNgy-H-33" value="&lt;b&gt;&lt;u&gt;email&lt;/u&gt;&lt;/b&gt;" style="ellipse;whiteSpace=wrap;html=1;" parent="1" vertex="1">
          <mxGeometry x="670" y="335" width="60" height="40" as="geometry" />
        </mxCell>
        <mxCell id="nzQGI6zBzVJNUCXNgy-H-34" value="nome" style="ellipse;whiteSpace=wrap;html=1;" parent="1" vertex="1">
          <mxGeometry x="560" y="300" width="60" height="40" as="geometry" />
        </mxCell>
        <mxCell id="nzQGI6zBzVJNUCXNgy-H-35" value="instituição" style="ellipse;whiteSpace=wrap;html=1;" parent="1" vertex="1">
          <mxGeometry x="680" y="410" width="70" height="40" as="geometry" />
        </mxCell>
        <mxCell id="nzQGI6zBzVJNUCXNgy-H-36" value="" style="endArrow=none;html=1;rounded=0;" parent="1" source="nzQGI6zBzVJNUCXNgy-H-5" target="nzQGI6zBzVJNUCXNgy-H-35" edge="1">
          <mxGeometry width="50" height="50" relative="1" as="geometry">
            <mxPoint x="500" y="490" as="sourcePoint" />
            <mxPoint x="550" y="440" as="targetPoint" />
          </mxGeometry>
        </mxCell>
        <mxCell id="nzQGI6zBzVJNUCXNgy-H-37" value="" style="endArrow=none;html=1;rounded=0;" parent="1" source="nzQGI6zBzVJNUCXNgy-H-5" target="nzQGI6zBzVJNUCXNgy-H-33" edge="1">
          <mxGeometry width="50" height="50" relative="1" as="geometry">
            <mxPoint x="645" y="410" as="sourcePoint" />
            <mxPoint x="695" y="360" as="targetPoint" />
          </mxGeometry>
        </mxCell>
        <mxCell id="nzQGI6zBzVJNUCXNgy-H-38" value="" style="endArrow=none;html=1;rounded=0;" parent="1" source="nzQGI6zBzVJNUCXNgy-H-5" target="nzQGI6zBzVJNUCXNgy-H-34" edge="1">
          <mxGeometry width="50" height="50" relative="1" as="geometry">
            <mxPoint x="80" y="600" as="sourcePoint" />
            <mxPoint x="130" y="550" as="targetPoint" />
          </mxGeometry>
        </mxCell>
        <mxCell id="nzQGI6zBzVJNUCXNgy-H-39" value="&lt;b&gt;&lt;u&gt;nome&lt;/u&gt;&lt;/b&gt;" style="ellipse;whiteSpace=wrap;html=1;" parent="1" vertex="1">
          <mxGeometry x="370" y="530" width="60" height="40" as="geometry" />
        </mxCell>
        <mxCell id="nzQGI6zBzVJNUCXNgy-H-40" value="address" style="ellipse;whiteSpace=wrap;html=1;" parent="1" vertex="1">
          <mxGeometry x="330" y="580" width="60" height="40" as="geometry" />
        </mxCell>
        <mxCell id="nzQGI6zBzVJNUCXNgy-H-41" value="" style="endArrow=none;html=1;rounded=0;" parent="1" source="nzQGI6zBzVJNUCXNgy-H-40" target="nzQGI6zBzVJNUCXNgy-H-4" edge="1">
          <mxGeometry width="50" height="50" relative="1" as="geometry">
            <mxPoint x="-50" y="580" as="sourcePoint" />
            <mxPoint y="530" as="targetPoint" />
          </mxGeometry>
        </mxCell>
        <mxCell id="nzQGI6zBzVJNUCXNgy-H-42" value="" style="endArrow=none;html=1;rounded=0;" parent="1" source="nzQGI6zBzVJNUCXNgy-H-4" target="nzQGI6zBzVJNUCXNgy-H-39" edge="1">
          <mxGeometry width="50" height="50" relative="1" as="geometry">
            <mxPoint x="-40" y="590" as="sourcePoint" />
            <mxPoint x="10" y="540" as="targetPoint" />
          </mxGeometry>
        </mxCell>
        <mxCell id="nzQGI6zBzVJNUCXNgy-H-44" value="regista" style="rhombus;whiteSpace=wrap;html=1;" parent="1" vertex="1">
          <mxGeometry x="650" y="980" width="60" height="60" as="geometry" />
        </mxCell>
        <mxCell id="nzQGI6zBzVJNUCXNgy-H-45" value="emite" style="rhombus;whiteSpace=wrap;html=1;" parent="1" vertex="1">
          <mxGeometry x="230" y="990" width="50" height="50" as="geometry" />
        </mxCell>
        <mxCell id="nzQGI6zBzVJNUCXNgy-H-46" value="N" style="endArrow=none;html=1;rounded=0;" parent="1" source="nzQGI6zBzVJNUCXNgy-H-15" target="nzQGI6zBzVJNUCXNgy-H-45" edge="1">
          <mxGeometry x="-0.5676" y="-13" width="50" height="50" relative="1" as="geometry">
            <mxPoint x="254" y="840" as="sourcePoint" />
            <mxPoint x="304" y="790" as="targetPoint" />
            <mxPoint x="-1" as="offset" />
          </mxGeometry>
        </mxCell>
        <mxCell id="nzQGI6zBzVJNUCXNgy-H-47" value="1" style="endArrow=none;html=1;rounded=0;" parent="1" source="nzQGI6zBzVJNUCXNgy-H-44" target="nzQGI6zBzVJNUCXNgy-H-4" edge="1">
          <mxGeometry x="0.9592" y="10" width="50" height="50" relative="1" as="geometry">
            <mxPoint x="264" y="850" as="sourcePoint" />
            <mxPoint x="314" y="800" as="targetPoint" />
            <Array as="points">
              <mxPoint x="680" y="630" />
            </Array>
            <mxPoint as="offset" />
          </mxGeometry>
        </mxCell>
        <mxCell id="nzQGI6zBzVJNUCXNgy-H-48" value="1" style="endArrow=none;html=1;rounded=0;" parent="1" source="nzQGI6zBzVJNUCXNgy-H-45" target="nzQGI6zBzVJNUCXNgy-H-4" edge="1">
          <mxGeometry x="0.9619" y="-10" width="50" height="50" relative="1" as="geometry">
            <mxPoint x="274" y="860" as="sourcePoint" />
            <mxPoint x="324" y="810" as="targetPoint" />
            <Array as="points">
              <mxPoint x="255" y="630" />
            </Array>
            <mxPoint as="offset" />
          </mxGeometry>
        </mxCell>
        <mxCell id="nzQGI6zBzVJNUCXNgy-H-49" value="N" style="endArrow=none;html=1;rounded=0;" parent="1" source="nzQGI6zBzVJNUCXNgy-H-44" target="nzQGI6zBzVJNUCXNgy-H-14" edge="1">
          <mxGeometry x="0.8" y="13" width="50" height="50" relative="1" as="geometry">
            <mxPoint x="607" y="1015" as="sourcePoint" />
            <mxPoint x="540" y="990" as="targetPoint" />
            <mxPoint as="offset" />
          </mxGeometry>
        </mxCell>
        <mxCell id="nzQGI6zBzVJNUCXNgy-H-50" value="instituição" style="ellipse;whiteSpace=wrap;html=1;" parent="1" vertex="1">
          <mxGeometry x="360" y="780" width="70" height="40" as="geometry" />
        </mxCell>
        <mxCell id="nzQGI6zBzVJNUCXNgy-H-51" value="dataInscrição" style="ellipse;whiteSpace=wrap;html=1;" parent="1" vertex="1">
          <mxGeometry x="310" y="840" width="90" height="40" as="geometry" />
        </mxCell>
        <mxCell id="nzQGI6zBzVJNUCXNgy-H-52" value="&lt;b&gt;&lt;u&gt;email&lt;/u&gt;&lt;/b&gt;" style="ellipse;whiteSpace=wrap;html=1;" parent="1" vertex="1">
          <mxGeometry x="560" y="890" width="60" height="40" as="geometry" />
        </mxCell>
        <mxCell id="nzQGI6zBzVJNUCXNgy-H-53" value="address" style="ellipse;whiteSpace=wrap;html=1;" parent="1" vertex="1">
          <mxGeometry x="580" y="820" width="60" height="40" as="geometry" />
        </mxCell>
        <mxCell id="nzQGI6zBzVJNUCXNgy-H-54" value="nome" style="ellipse;whiteSpace=wrap;html=1;" parent="1" vertex="1">
          <mxGeometry x="530" y="770" width="60" height="40" as="geometry" />
        </mxCell>
        <mxCell id="nzQGI6zBzVJNUCXNgy-H-56" value="" style="endArrow=none;html=1;rounded=0;" parent="1" source="nzQGI6zBzVJNUCXNgy-H-3" target="nzQGI6zBzVJNUCXNgy-H-54" edge="1">
          <mxGeometry width="50" height="50" relative="1" as="geometry">
            <mxPoint x="370" y="960" as="sourcePoint" />
            <mxPoint x="340" y="930" as="targetPoint" />
          </mxGeometry>
        </mxCell>
        <mxCell id="nzQGI6zBzVJNUCXNgy-H-57" value="" style="endArrow=none;html=1;rounded=0;" parent="1" source="nzQGI6zBzVJNUCXNgy-H-3" target="nzQGI6zBzVJNUCXNgy-H-51" edge="1">
          <mxGeometry width="50" height="50" relative="1" as="geometry">
            <mxPoint x="380" y="970" as="sourcePoint" />
            <mxPoint x="350" y="940" as="targetPoint" />
          </mxGeometry>
        </mxCell>
        <mxCell id="nzQGI6zBzVJNUCXNgy-H-58" value="" style="endArrow=none;html=1;rounded=0;" parent="1" source="nzQGI6zBzVJNUCXNgy-H-3" target="nzQGI6zBzVJNUCXNgy-H-50" edge="1">
          <mxGeometry width="50" height="50" relative="1" as="geometry">
            <mxPoint x="390" y="980" as="sourcePoint" />
            <mxPoint x="360" y="950" as="targetPoint" />
          </mxGeometry>
        </mxCell>
        <mxCell id="nzQGI6zBzVJNUCXNgy-H-59" value="" style="endArrow=none;html=1;rounded=0;" parent="1" source="nzQGI6zBzVJNUCXNgy-H-3" target="nzQGI6zBzVJNUCXNgy-H-52" edge="1">
          <mxGeometry width="50" height="50" relative="1" as="geometry">
            <mxPoint x="370" y="960" as="sourcePoint" />
            <mxPoint x="390" y="920" as="targetPoint" />
          </mxGeometry>
        </mxCell>
        <mxCell id="nzQGI6zBzVJNUCXNgy-H-60" value="" style="endArrow=none;html=1;rounded=0;" parent="1" source="nzQGI6zBzVJNUCXNgy-H-3" target="nzQGI6zBzVJNUCXNgy-H-53" edge="1">
          <mxGeometry width="50" height="50" relative="1" as="geometry">
            <mxPoint x="380" y="970" as="sourcePoint" />
            <mxPoint x="400" y="930" as="targetPoint" />
          </mxGeometry>
        </mxCell>
        <mxCell id="nzQGI6zBzVJNUCXNgy-H-62" value="comprovativo" style="ellipse;whiteSpace=wrap;html=1;" parent="1" vertex="1">
          <mxGeometry x="120" y="990" width="90" height="30" as="geometry" />
        </mxCell>
        <mxCell id="nzQGI6zBzVJNUCXNgy-H-64" value="localização" style="ellipse;whiteSpace=wrap;html=1;" parent="1" vertex="1">
          <mxGeometry x="150" y="1040" width="70" height="30" as="geometry" />
        </mxCell>
        <mxCell id="nzQGI6zBzVJNUCXNgy-H-65" value="ref. transação bancária" style="ellipse;whiteSpace=wrap;html=1;" parent="1" vertex="1">
          <mxGeometry x="730" y="985" width="80" height="40" as="geometry" />
        </mxCell>
        <mxCell id="nzQGI6zBzVJNUCXNgy-H-66" value="" style="endArrow=none;html=1;rounded=0;" parent="1" source="nzQGI6zBzVJNUCXNgy-H-44" target="nzQGI6zBzVJNUCXNgy-H-65" edge="1">
          <mxGeometry width="50" height="50" relative="1" as="geometry">
            <mxPoint x="760" y="960" as="sourcePoint" />
            <mxPoint x="810" y="910" as="targetPoint" />
          </mxGeometry>
        </mxCell>
        <mxCell id="nzQGI6zBzVJNUCXNgy-H-67" value="" style="endArrow=none;html=1;rounded=0;" parent="1" source="nzQGI6zBzVJNUCXNgy-H-64" target="nzQGI6zBzVJNUCXNgy-H-45" edge="1">
          <mxGeometry width="50" height="50" relative="1" as="geometry">
            <mxPoint x="60" y="1050" as="sourcePoint" />
            <mxPoint x="110" y="1000" as="targetPoint" />
          </mxGeometry>
        </mxCell>
        <mxCell id="nzQGI6zBzVJNUCXNgy-H-68" value="" style="endArrow=none;html=1;rounded=0;" parent="1" source="nzQGI6zBzVJNUCXNgy-H-45" target="nzQGI6zBzVJNUCXNgy-H-62" edge="1">
          <mxGeometry width="50" height="50" relative="1" as="geometry">
            <mxPoint x="70" y="1060" as="sourcePoint" />
            <mxPoint x="120" y="1010" as="targetPoint" />
          </mxGeometry>
        </mxCell>
      </root>
    </mxGraphModel>
  </diagram>
</mxfile>
